<mxfile host="Electron" agent="Mozilla/5.0 (Windows NT 10.0; Win64; x64) AppleWebKit/537.36 (KHTML, like Gecko) draw.io/24.7.8 Chrome/128.0.6613.36 Electron/32.0.1 Safari/537.36" version="24.7.8">
  <diagram name="БД Автобусов" id="cPq8n2PzeiPfD2wOMpCX">
    <mxGraphModel dx="819" dy="482" grid="1" gridSize="10" guides="1" tooltips="1" connect="1" arrows="1" fold="1" page="1" pageScale="1" pageWidth="827" pageHeight="1169" math="0" shadow="0">
      <root>
        <mxCell id="0" />
        <mxCell id="1" parent="0" />
        <mxCell id="4HLpth6gb9EiB3PABYOW-2" value="Buses" style="swimlane;whiteSpace=wrap;html=1;" parent="1" vertex="1">
          <mxGeometry x="40" y="40" width="120" height="160" as="geometry" />
        </mxCell>
        <mxCell id="4HLpth6gb9EiB3PABYOW-4" value="BusID&lt;br&gt;BusBrand&lt;br&gt;BusModel&lt;br&gt;BusYearOfManufacture&lt;br&gt;BusLicensePlate&lt;br&gt;&lt;div&gt;BusCapacity&lt;br&gt;BusStatus&lt;/div&gt;" style="text;html=1;align=left;verticalAlign=middle;whiteSpace=wrap;rounded=0;" parent="4HLpth6gb9EiB3PABYOW-2" vertex="1">
          <mxGeometry y="22.5" width="120" height="107.5" as="geometry" />
        </mxCell>
        <mxCell id="4HLpth6gb9EiB3PABYOW-5" value="Workers" style="swimlane;whiteSpace=wrap;html=1;" parent="1" vertex="1">
          <mxGeometry x="200" y="40" width="120" height="160" as="geometry" />
        </mxCell>
        <mxCell id="4HLpth6gb9EiB3PABYOW-6" value="WorkerID&lt;br&gt;WorkerLastName&lt;br&gt;WorkerFirstName&lt;br&gt;WorkerMiddleName&lt;br&gt;WorkerPosition&lt;br&gt;WorkerContacts&lt;div&gt;WorkerHireDate&lt;/div&gt;" style="text;html=1;align=left;verticalAlign=middle;whiteSpace=wrap;rounded=0;" parent="4HLpth6gb9EiB3PABYOW-5" vertex="1">
          <mxGeometry y="22.5" width="120" height="117.5" as="geometry" />
        </mxCell>
        <mxCell id="4HLpth6gb9EiB3PABYOW-7" value="Flights" style="swimlane;whiteSpace=wrap;html=1;" parent="1" vertex="1">
          <mxGeometry x="360" y="40" width="120" height="160" as="geometry" />
        </mxCell>
        <mxCell id="4HLpth6gb9EiB3PABYOW-8" value="FlightID&lt;br&gt;BusID&lt;br&gt;&lt;div&gt;DeparturePoint&lt;br&gt;DepartureDate&lt;br&gt;DepartureTime&lt;br&gt;ArrivalPoint&lt;br&gt;ArrivalDate&lt;br&gt;ArrivalTime&lt;/div&gt;" style="text;html=1;align=left;verticalAlign=middle;whiteSpace=wrap;rounded=0;" parent="4HLpth6gb9EiB3PABYOW-7" vertex="1">
          <mxGeometry y="22.5" width="120" height="117.5" as="geometry" />
        </mxCell>
        <mxCell id="4HLpth6gb9EiB3PABYOW-9" value="Tickets" style="swimlane;whiteSpace=wrap;html=1;" parent="1" vertex="1">
          <mxGeometry x="520" y="40" width="120" height="160" as="geometry" />
        </mxCell>
        <mxCell id="4HLpth6gb9EiB3PABYOW-10" value="TicketID&lt;div&gt;FlightID&lt;br&gt;TicketType&lt;br&gt;TicketPrice&lt;br&gt;TicketStatus&lt;/div&gt;" style="text;html=1;align=left;verticalAlign=middle;whiteSpace=wrap;rounded=0;" parent="4HLpth6gb9EiB3PABYOW-9" vertex="1">
          <mxGeometry y="22.5" width="120" height="77.5" as="geometry" />
        </mxCell>
        <mxCell id="4HLpth6gb9EiB3PABYOW-11" value="Clients" style="swimlane;whiteSpace=wrap;html=1;" parent="1" vertex="1">
          <mxGeometry x="200" y="240" width="120" height="160" as="geometry" />
        </mxCell>
        <mxCell id="4HLpth6gb9EiB3PABYOW-12" value="ClientLastName&lt;br&gt;ClientFirstName&lt;br&gt;ClientMiddleName&lt;br&gt;ClientContacts" style="text;html=1;align=left;verticalAlign=middle;whiteSpace=wrap;rounded=0;" parent="4HLpth6gb9EiB3PABYOW-11" vertex="1">
          <mxGeometry y="22.5" width="120" height="77.5" as="geometry" />
        </mxCell>
        <mxCell id="4HLpth6gb9EiB3PABYOW-29" style="edgeStyle=orthogonalEdgeStyle;rounded=0;orthogonalLoop=1;jettySize=auto;html=1;entryX=0.5;entryY=1;entryDx=0;entryDy=0;" parent="1" source="4HLpth6gb9EiB3PABYOW-13" target="4HLpth6gb9EiB3PABYOW-2" edge="1">
          <mxGeometry relative="1" as="geometry">
            <Array as="points">
              <mxPoint x="420" y="430" />
              <mxPoint x="100" y="430" />
            </Array>
          </mxGeometry>
        </mxCell>
        <mxCell id="4HLpth6gb9EiB3PABYOW-13" value="Repair" style="swimlane;whiteSpace=wrap;html=1;" parent="1" vertex="1">
          <mxGeometry x="360" y="240" width="120" height="160" as="geometry" />
        </mxCell>
        <mxCell id="4HLpth6gb9EiB3PABYOW-14" value="RepairID&lt;div&gt;BusID&lt;br&gt;RepairStatus&lt;br&gt;RepairNotes&lt;/div&gt;" style="text;html=1;align=left;verticalAlign=middle;whiteSpace=wrap;rounded=0;" parent="4HLpth6gb9EiB3PABYOW-13" vertex="1">
          <mxGeometry y="22.5" width="120" height="67.5" as="geometry" />
        </mxCell>
        <mxCell id="4HLpth6gb9EiB3PABYOW-23" value="да" style="text;html=1;align=center;verticalAlign=middle;whiteSpace=wrap;rounded=0;" parent="1" vertex="1">
          <mxGeometry x="360" y="200" width="60" height="30" as="geometry" />
        </mxCell>
        <mxCell id="4HLpth6gb9EiB3PABYOW-24" value="нет" style="text;html=1;align=center;verticalAlign=middle;whiteSpace=wrap;rounded=0;" parent="1" vertex="1">
          <mxGeometry x="200" y="200" width="60" height="30" as="geometry" />
        </mxCell>
        <mxCell id="4HLpth6gb9EiB3PABYOW-30" style="edgeStyle=orthogonalEdgeStyle;rounded=0;orthogonalLoop=1;jettySize=auto;html=1;" parent="1" source="4HLpth6gb9EiB3PABYOW-10" target="4HLpth6gb9EiB3PABYOW-8" edge="1">
          <mxGeometry relative="1" as="geometry" />
        </mxCell>
        <mxCell id="9bmbh4tpUsVBHF0DnATt-1" style="edgeStyle=orthogonalEdgeStyle;rounded=0;orthogonalLoop=1;jettySize=auto;html=1;entryX=0.5;entryY=0;entryDx=0;entryDy=0;" edge="1" parent="1" target="4HLpth6gb9EiB3PABYOW-2">
          <mxGeometry relative="1" as="geometry">
            <mxPoint x="360" y="80" as="sourcePoint" />
            <Array as="points">
              <mxPoint x="360" y="80" />
              <mxPoint x="340" y="80" />
              <mxPoint x="340" y="20" />
              <mxPoint x="100" y="20" />
            </Array>
          </mxGeometry>
        </mxCell>
      </root>
    </mxGraphModel>
  </diagram>
</mxfile>
